%TF.GenerationSoftware,KiCad,Pcbnew,(6.0.10)*%
%TF.CreationDate,2023-02-24T19:06:45-08:00*%
%TF.ProjectId,Exercise 2,45786572-6369-4736-9520-322e6b696361,rev?*%
%TF.SameCoordinates,Original*%
%TF.FileFunction,Legend,Top*%
%TF.FilePolarity,Positive*%
%FSLAX46Y46*%
G04 Gerber Fmt 4.6, Leading zero omitted, Abs format (unit mm)*
G04 Created by KiCad (PCBNEW (6.0.10)) date 2023-02-24 19:06:45*
%MOMM*%
%LPD*%
G01*
G04 APERTURE LIST*
%ADD10C,0.150000*%
%ADD11C,0.120000*%
G04 APERTURE END LIST*
D10*
%TO.C,C2*%
X49407142Y-117006666D02*
X49454761Y-117054285D01*
X49502380Y-117197142D01*
X49502380Y-117292380D01*
X49454761Y-117435238D01*
X49359523Y-117530476D01*
X49264285Y-117578095D01*
X49073809Y-117625714D01*
X48930952Y-117625714D01*
X48740476Y-117578095D01*
X48645238Y-117530476D01*
X48550000Y-117435238D01*
X48502380Y-117292380D01*
X48502380Y-117197142D01*
X48550000Y-117054285D01*
X48597619Y-117006666D01*
X48597619Y-116625714D02*
X48550000Y-116578095D01*
X48502380Y-116482857D01*
X48502380Y-116244761D01*
X48550000Y-116149523D01*
X48597619Y-116101904D01*
X48692857Y-116054285D01*
X48788095Y-116054285D01*
X48930952Y-116101904D01*
X49502380Y-116673333D01*
X49502380Y-116054285D01*
%TO.C,D2*%
X121652380Y-125198095D02*
X120652380Y-125198095D01*
X120652380Y-124960000D01*
X120700000Y-124817142D01*
X120795238Y-124721904D01*
X120890476Y-124674285D01*
X121080952Y-124626666D01*
X121223809Y-124626666D01*
X121414285Y-124674285D01*
X121509523Y-124721904D01*
X121604761Y-124817142D01*
X121652380Y-124960000D01*
X121652380Y-125198095D01*
X120747619Y-124245714D02*
X120700000Y-124198095D01*
X120652380Y-124102857D01*
X120652380Y-123864761D01*
X120700000Y-123769523D01*
X120747619Y-123721904D01*
X120842857Y-123674285D01*
X120938095Y-123674285D01*
X121080952Y-123721904D01*
X121652380Y-124293333D01*
X121652380Y-123674285D01*
%TO.C,D1*%
X121652380Y-82018095D02*
X120652380Y-82018095D01*
X120652380Y-81780000D01*
X120700000Y-81637142D01*
X120795238Y-81541904D01*
X120890476Y-81494285D01*
X121080952Y-81446666D01*
X121223809Y-81446666D01*
X121414285Y-81494285D01*
X121509523Y-81541904D01*
X121604761Y-81637142D01*
X121652380Y-81780000D01*
X121652380Y-82018095D01*
X121652380Y-80494285D02*
X121652380Y-81065714D01*
X121652380Y-80780000D02*
X120652380Y-80780000D01*
X120795238Y-80875238D01*
X120890476Y-80970476D01*
X120938095Y-81065714D01*
%TO.C,U1*%
X90678095Y-97652380D02*
X90678095Y-98461904D01*
X90725714Y-98557142D01*
X90773333Y-98604761D01*
X90868571Y-98652380D01*
X91059047Y-98652380D01*
X91154285Y-98604761D01*
X91201904Y-98557142D01*
X91249523Y-98461904D01*
X91249523Y-97652380D01*
X92249523Y-98652380D02*
X91678095Y-98652380D01*
X91963809Y-98652380D02*
X91963809Y-97652380D01*
X91868571Y-97795238D01*
X91773333Y-97890476D01*
X91678095Y-97938095D01*
%TO.C,R3*%
X121482380Y-94146666D02*
X121006190Y-94480000D01*
X121482380Y-94718095D02*
X120482380Y-94718095D01*
X120482380Y-94337142D01*
X120530000Y-94241904D01*
X120577619Y-94194285D01*
X120672857Y-94146666D01*
X120815714Y-94146666D01*
X120910952Y-94194285D01*
X120958571Y-94241904D01*
X121006190Y-94337142D01*
X121006190Y-94718095D01*
X120482380Y-93813333D02*
X120482380Y-93194285D01*
X120863333Y-93527619D01*
X120863333Y-93384761D01*
X120910952Y-93289523D01*
X120958571Y-93241904D01*
X121053809Y-93194285D01*
X121291904Y-93194285D01*
X121387142Y-93241904D01*
X121434761Y-93289523D01*
X121482380Y-93384761D01*
X121482380Y-93670476D01*
X121434761Y-93765714D01*
X121387142Y-93813333D01*
%TO.C,R2*%
X49602380Y-104306666D02*
X49126190Y-104640000D01*
X49602380Y-104878095D02*
X48602380Y-104878095D01*
X48602380Y-104497142D01*
X48650000Y-104401904D01*
X48697619Y-104354285D01*
X48792857Y-104306666D01*
X48935714Y-104306666D01*
X49030952Y-104354285D01*
X49078571Y-104401904D01*
X49126190Y-104497142D01*
X49126190Y-104878095D01*
X48697619Y-103925714D02*
X48650000Y-103878095D01*
X48602380Y-103782857D01*
X48602380Y-103544761D01*
X48650000Y-103449523D01*
X48697619Y-103401904D01*
X48792857Y-103354285D01*
X48888095Y-103354285D01*
X49030952Y-103401904D01*
X49602380Y-103973333D01*
X49602380Y-103354285D01*
%TO.C,C2*%
X72337142Y-111926666D02*
X72384761Y-111974285D01*
X72432380Y-112117142D01*
X72432380Y-112212380D01*
X72384761Y-112355238D01*
X72289523Y-112450476D01*
X72194285Y-112498095D01*
X72003809Y-112545714D01*
X71860952Y-112545714D01*
X71670476Y-112498095D01*
X71575238Y-112450476D01*
X71480000Y-112355238D01*
X71432380Y-112212380D01*
X71432380Y-112117142D01*
X71480000Y-111974285D01*
X71527619Y-111926666D01*
X71527619Y-111545714D02*
X71480000Y-111498095D01*
X71432380Y-111402857D01*
X71432380Y-111164761D01*
X71480000Y-111069523D01*
X71527619Y-111021904D01*
X71622857Y-110974285D01*
X71718095Y-110974285D01*
X71860952Y-111021904D01*
X72432380Y-111593333D01*
X72432380Y-110974285D01*
%TO.C,R4*%
X118182380Y-109386666D02*
X117706190Y-109720000D01*
X118182380Y-109958095D02*
X117182380Y-109958095D01*
X117182380Y-109577142D01*
X117230000Y-109481904D01*
X117277619Y-109434285D01*
X117372857Y-109386666D01*
X117515714Y-109386666D01*
X117610952Y-109434285D01*
X117658571Y-109481904D01*
X117706190Y-109577142D01*
X117706190Y-109958095D01*
X117515714Y-108529523D02*
X118182380Y-108529523D01*
X117134761Y-108767619D02*
X117849047Y-109005714D01*
X117849047Y-108386666D01*
%TO.C,R1*%
X49602380Y-89066666D02*
X49126190Y-89400000D01*
X49602380Y-89638095D02*
X48602380Y-89638095D01*
X48602380Y-89257142D01*
X48650000Y-89161904D01*
X48697619Y-89114285D01*
X48792857Y-89066666D01*
X48935714Y-89066666D01*
X49030952Y-89114285D01*
X49078571Y-89161904D01*
X49126190Y-89257142D01*
X49126190Y-89638095D01*
X49602380Y-88114285D02*
X49602380Y-88685714D01*
X49602380Y-88400000D02*
X48602380Y-88400000D01*
X48745238Y-88495238D01*
X48840476Y-88590476D01*
X48888095Y-88685714D01*
D11*
%TO.C,C2*%
X51735000Y-119325000D02*
X51735000Y-115240000D01*
X49865000Y-115240000D02*
X49865000Y-119325000D01*
X49865000Y-119325000D02*
X51735000Y-119325000D01*
%TO.C,D2*%
X120515000Y-122000000D02*
X118245000Y-122000000D01*
X120515000Y-126060000D02*
X120515000Y-122000000D01*
X118245000Y-122000000D02*
X118245000Y-126060000D01*
%TO.C,D1*%
X120515000Y-82880000D02*
X120515000Y-78820000D01*
X118245000Y-78820000D02*
X118245000Y-82880000D01*
X120515000Y-78820000D02*
X118245000Y-78820000D01*
%TO.C,U1*%
X91440000Y-104160000D02*
X93390000Y-104160000D01*
X91440000Y-99040000D02*
X87990000Y-99040000D01*
X91440000Y-104160000D02*
X89490000Y-104160000D01*
X91440000Y-99040000D02*
X93390000Y-99040000D01*
%TO.C,R3*%
X118645000Y-93752936D02*
X118645000Y-94207064D01*
X120115000Y-93752936D02*
X120115000Y-94207064D01*
%TO.C,R2*%
X51535000Y-104367064D02*
X51535000Y-103912936D01*
X50065000Y-104367064D02*
X50065000Y-103912936D01*
%TO.C,C2*%
X72925000Y-112021252D02*
X72925000Y-111498748D01*
X74395000Y-112021252D02*
X74395000Y-111498748D01*
%TO.C,R4*%
X118645000Y-109447064D02*
X118645000Y-108992936D01*
X120115000Y-109447064D02*
X120115000Y-108992936D01*
%TO.C,R1*%
X50065000Y-89127064D02*
X50065000Y-88672936D01*
X51535000Y-89127064D02*
X51535000Y-88672936D01*
%TD*%
M02*
